<svg width="40" height="40" viewBox="0 0 40 40" fill="none" xmlns="http://www.w3.org/2000/svg">
<path d="M26.25 17.5L34.1167 9.63333C34.2915 9.45874 34.5141 9.33986 34.7564 9.29172C34.9988 9.24358 35.2499 9.26834 35.4782 9.36285C35.7065 9.45737 35.9016 9.61742 36.039 9.82278C36.1764 10.0281 36.2498 10.2696 36.25 10.5167V29.4833C36.2498 29.7304 36.1764 29.9719 36.039 30.1772C35.9016 30.3826 35.7065 30.5426 35.4782 30.6371C35.2499 30.7317 34.9988 30.7564 34.7564 30.7083C34.5141 30.6601 34.2915 30.5413 34.1167 30.3667L26.25 22.5M7.5 31.25H22.5C23.4946 31.25 24.4484 30.8549 25.1516 30.1516C25.8549 29.4484 26.25 28.4946 26.25 27.5V12.5C26.25 11.5054 25.8549 10.5516 25.1516 9.84835C24.4484 9.14509 23.4946 8.75 22.5 8.75H7.5C6.50544 8.75 5.55161 9.14509 4.84835 9.84835C4.14509 10.5516 3.75 11.5054 3.75 12.5V27.5C3.75 28.4946 4.14509 29.4484 4.84835 30.1516C5.55161 30.8549 6.50544 31.25 7.5 31.25V31.25Z" stroke="white" stroke-width="1.5" stroke-linecap="round"/>
</svg>
