<svg width="40" height="40" viewBox="0 0 40 40" fill="none" xmlns="http://www.w3.org/2000/svg">
<path d="M5.625 32.5H34.375M5.625 32.5C5.12772 32.5 4.65081 32.3025 4.29917 31.9508C3.94754 31.5992 3.75 31.1223 3.75 30.625M5.625 32.5H8.125C9.16 32.5 10 31.66 10 30.625M3.75 30.625V9.375M3.75 30.625V28.125C3.75 27.09 4.59 26.25 5.625 26.25M36.25 30.625V9.375M36.25 30.625C36.25 31.66 35.41 32.5 34.375 32.5M36.25 30.625V28.125C36.25 27.09 35.41 26.25 34.375 26.25M34.375 32.5H31.875C31.3777 32.5 30.9008 32.3025 30.5492 31.9508C30.1975 31.5992 30 31.1223 30 30.625M34.375 7.5H5.625M34.375 7.5C35.41 7.5 36.25 8.34 36.25 9.375M34.375 7.5H31.875C30.84 7.5 30 8.34 30 9.375M36.25 9.375V11.875C36.25 12.91 35.41 13.75 34.375 13.75M5.625 7.5C4.59 7.5 3.75 8.34 3.75 9.375M5.625 7.5H8.125C9.16 7.5 10 8.34 10 9.375M3.75 9.375V11.875C3.75 12.91 4.59 13.75 5.625 13.75M5.625 13.75H8.125M5.625 13.75C4.59 13.75 3.75 14.59 3.75 15.625V18.125C3.75 19.16 4.59 20 5.625 20M8.125 13.75C9.16 13.75 10 12.91 10 11.875V9.375M8.125 13.75C9.16 13.75 10 14.59 10 15.625V18.125M10 9.375V18.125M10 9.375C10 8.34 10.84 7.5 11.875 7.5H28.125C29.16 7.5 30 8.34 30 9.375M31.875 13.75H34.375M31.875 13.75C31.3777 13.75 30.9008 13.5525 30.5492 13.2008C30.1975 12.8492 30 12.3723 30 11.875V9.375M31.875 13.75C30.84 13.75 30 14.59 30 15.625V18.125M34.375 13.75C35.41 13.75 36.25 14.59 36.25 15.625V18.125C36.25 19.16 35.41 20 34.375 20M30 9.375V18.125M11.875 20H28.125M11.875 20C11.3777 20 10.9008 19.8025 10.5492 19.4508C10.1975 19.0992 10 18.6223 10 18.125M11.875 20C10.84 20 10 20.84 10 21.875M10 18.125C10 19.16 9.16 20 8.125 20M30 18.125C30 19.16 29.16 20 28.125 20M30 18.125C30 19.16 30.84 20 31.875 20M28.125 20C29.16 20 30 20.84 30 21.875M10 30.625V21.875M10 30.625C10 31.66 10.84 32.5 11.875 32.5H28.125C29.16 32.5 30 31.66 30 30.625M10 30.625V28.125C10 27.09 9.16 26.25 8.125 26.25M30 30.625V21.875M30 30.625V28.125C30 27.09 30.84 26.25 31.875 26.25M30 21.875V24.375C30 25.41 30.84 26.25 31.875 26.25M30 21.875C30 20.84 30.84 20 31.875 20M10 21.875V24.375C10 25.41 9.16 26.25 8.125 26.25M10 21.875C10 20.84 9.16 20 8.125 20M5.625 20H8.125M5.625 20C4.59 20 3.75 20.84 3.75 21.875V24.375C3.75 25.41 4.59 26.25 5.625 26.25M31.875 20H34.375M34.375 20C35.41 20 36.25 20.84 36.25 21.875V24.375C36.25 25.41 35.41 26.25 34.375 26.25M5.625 26.25H8.125M31.875 26.25H34.375" stroke="white" stroke-width="1.5" stroke-linecap="round" stroke-linejoin="round"/>
</svg>
