<svg width="80" height="80" viewBox="0 0 80 80" fill="none" xmlns="http://www.w3.org/2000/svg">
<path d="M10 40L16.6667 33.3333M16.6667 33.3333L40 10L63.3333 33.3333M16.6667 33.3333V66.6667C16.6667 68.5076 18.1591 70 20 70H30M63.3333 33.3333L70 40M63.3333 33.3333V66.6667C63.3333 68.5076 61.8409 70 60 70H50M30 70C31.8409 70 33.3333 68.5076 33.3333 66.6667V53.3333C33.3333 51.4924 34.8257 50 36.6667 50H43.3333C45.1743 50 46.6667 51.4924 46.6667 53.3333V66.6667C46.6667 68.5076 48.159 70 50 70M30 70H50" stroke="white" stroke-width="2" stroke-linecap="round" stroke-linejoin="round"/>
</svg>
