<svg width="198" height="110" viewBox="0 0 198 110" fill="none" xmlns="http://www.w3.org/2000/svg">
<path d="M193 73C130.584 73 150.915 110 99 110C47.0852 110 72.68 73 5 73C5 52.5655 47.0852 36 99 36C150.915 36 193 52.5655 193 73Z" fill="#161616"/>
<rect width="198" height="73" fill="#161616"/>
<rect x="65.3093" y="30.3203" width="68.6907" height="41.6797" rx="1" stroke="#FFFBFB" stroke-width="2"/>
<line x1="65" y1="37.5" x2="135" y2="37.5" stroke="white" stroke-width="3"/>
<line y1="-1" x2="11.2321" y2="-1" transform="matrix(0.707152 -0.707062 0.707152 0.707062 69.8693 38.8505)" stroke="white" stroke-width="2"/>
<line y1="-1" x2="11.2321" y2="-1" transform="matrix(0.707152 -0.707062 0.707152 0.707062 79.4005 38.8505)" stroke="white" stroke-width="2"/>
<line y1="-1" x2="11.2321" y2="-1" transform="matrix(0.707152 -0.707062 0.707152 0.707062 88.9319 38.8505)" stroke="white" stroke-width="2"/>
<line y1="-1" x2="11.2321" y2="-1" transform="matrix(0.707152 -0.707062 0.707152 0.707062 98.4633 38.8505)" stroke="white" stroke-width="2"/>
<line y1="-1" x2="11.2321" y2="-1" transform="matrix(0.707152 -0.707062 0.707152 0.707062 107.995 38.8505)" stroke="white" stroke-width="2"/>
<line y1="-1" x2="11.2321" y2="-1" transform="matrix(0.707152 -0.707062 0.707152 0.707062 117.526 38.8505)" stroke="white" stroke-width="2"/>
<line y1="-1" x2="11.2321" y2="-1" transform="matrix(0.707152 -0.707062 0.707152 0.707062 127.057 38.8505)" stroke="white" stroke-width="2"/>
<line y1="-1" x2="7.86245" y2="-1" transform="matrix(0.500032 -0.86597 0.866081 0.499968 77.8928 27.7035)" stroke="white" stroke-width="2"/>
<line y1="-1" x2="7.86245" y2="-1" transform="matrix(0.500032 -0.86597 0.866081 0.499968 69.4535 29.9646)" stroke="white" stroke-width="2"/>
<line y1="-1" x2="7.86245" y2="-1" transform="matrix(0.500032 -0.86597 0.866081 0.499968 87.0994 25.2369)" stroke="white" stroke-width="2"/>
<line y1="-1" x2="7.86245" y2="-1" transform="matrix(0.500032 -0.86597 0.866081 0.499968 95.5387 22.976)" stroke="white" stroke-width="2"/>
<line y1="-1" x2="8.14712" y2="-1" transform="matrix(0.496317 -0.868105 0.868215 0.496253 104.745 20.5094)" stroke="white" stroke-width="2"/>
<line y1="-1" x2="7.3411" y2="-1" transform="matrix(0.500032 -0.86597 0.866081 0.499968 114.287 17.6244)" stroke="white" stroke-width="2"/>
<line y1="-1" x2="7.86245" y2="-1" transform="matrix(0.500032 -0.86597 0.866081 0.499968 123.926 15.3707)" stroke="white" stroke-width="2"/>
<rect x="1.22478" y="0.707129" width="68.6901" height="5.14765" rx="1" transform="matrix(0.965934 -0.258788 0.25885 0.965917 62.8587 24.6349)" stroke="#FCFCFC" stroke-width="2"/>
<path d="M77.1136 49.4647V52.6447H76.1896V44.3407H79.2616C80.1416 44.3407 80.8016 44.5447 81.2416 44.9527C81.6896 45.3607 81.9136 45.9967 81.9136 46.8607C81.9136 48.1407 81.4056 48.9447 80.3896 49.2727L81.9856 52.6447H80.9656L79.4656 49.4647H77.1136ZM79.2736 48.6487C80.4016 48.6487 80.9656 48.0687 80.9656 46.9087C80.9656 45.7407 80.3976 45.1567 79.2616 45.1567H77.1136V48.6487H79.2736ZM83.5841 52.6447V44.3407H88.6361V45.1567H84.5081V48.0247H87.9161V48.8287H84.5081V51.8287H88.6361V52.6447H83.5841ZM94.9329 44.3407H95.8929L93.7209 52.6447H91.6569L89.4849 44.3407H90.4449L92.3529 51.8287H93.0249L94.9329 44.3407ZM97.2013 52.6447V44.3407H102.253V45.1567H98.1253V48.0247H101.533V48.8287H98.1253V51.8287H102.253V52.6447H97.2013ZM104.758 49.4647V52.6447H103.834V44.3407H106.906C107.786 44.3407 108.446 44.5447 108.886 44.9527C109.334 45.3607 109.558 45.9967 109.558 46.8607C109.558 48.1407 109.05 48.9447 108.034 49.2727L109.63 52.6447H108.61L107.11 49.4647H104.758ZM106.918 48.6487C108.046 48.6487 108.61 48.0687 108.61 46.9087C108.61 45.7407 108.042 45.1567 106.906 45.1567H104.758V48.6487H106.918ZM113.521 45.0247C112.321 45.0247 111.721 45.4767 111.721 46.3807C111.721 46.8847 111.857 47.2327 112.129 47.4247C112.409 47.6087 112.969 47.7967 113.809 47.9887C114.657 48.1727 115.257 48.4167 115.609 48.7207C115.961 49.0167 116.137 49.5087 116.137 50.1967C116.137 51.9007 115.253 52.7527 113.485 52.7527C112.901 52.7527 112.169 52.6847 111.289 52.5487L110.857 52.4887L110.953 51.7207C112.041 51.8647 112.869 51.9367 113.437 51.9367C114.621 51.9367 115.213 51.3807 115.213 50.2687C115.213 49.8207 115.081 49.5007 114.817 49.3087C114.561 49.1087 114.077 48.9407 113.365 48.8047C112.429 48.6047 111.765 48.3487 111.373 48.0367C110.981 47.7167 110.785 47.1847 110.785 46.4407C110.785 44.9527 111.677 44.2087 113.461 44.2087C114.045 44.2087 114.745 44.2687 115.561 44.3887L115.969 44.4487L115.885 45.2287C114.773 45.0927 113.985 45.0247 113.521 45.0247ZM117.733 52.6447V44.3407H122.785V45.1567H118.657V48.0247H122.065V48.8287H118.657V51.8287H122.785V52.6447H117.733Z" fill="white"/>
<path d="M76.2487 56.8234V65.1274H81.2167V64.3114H77.1727V61.0714H80.5927V60.2554H77.1727V56.8234H76.2487ZM82.9699 60.9394C82.9699 59.7234 83.1299 58.8474 83.4499 58.3114C83.7699 57.7834 84.3859 57.5194 85.2979 57.5194C86.2179 57.5194 86.8339 57.7794 87.1459 58.2994C87.4659 58.8194 87.6259 59.6914 87.6259 60.9154C87.6259 62.1394 87.4619 63.0314 87.1339 63.5914C86.8059 64.1514 86.1899 64.4314 85.2859 64.4314C84.3899 64.4314 83.7779 64.1514 83.4499 63.5914C83.1299 63.0394 82.9699 62.1554 82.9699 60.9394ZM88.5859 60.9154C88.5859 59.4354 88.3499 58.3634 87.8779 57.6994C87.4059 57.0354 86.5459 56.7034 85.2979 56.7034C84.0579 56.7034 83.2019 57.0434 82.7299 57.7234C82.2579 58.4034 82.0219 59.4714 82.0219 60.9274C82.0219 62.3914 82.2619 63.4754 82.7419 64.1794C83.2219 64.8914 84.0739 65.2474 85.2979 65.2474C86.5219 65.2474 87.3739 64.8954 87.8539 64.1914C88.3419 63.4874 88.5859 62.3954 88.5859 60.9154ZM90.8018 60.9394C90.8018 59.7234 90.9618 58.8474 91.2818 58.3114C91.6018 57.7834 92.2178 57.5194 93.1298 57.5194C94.0498 57.5194 94.6658 57.7794 94.9778 58.2994C95.2978 58.8194 95.4578 59.6914 95.4578 60.9154C95.4578 62.1394 95.2938 63.0314 94.9658 63.5914C94.6378 64.1514 94.0218 64.4314 93.1178 64.4314C92.2218 64.4314 91.6098 64.1514 91.2818 63.5914C90.9618 63.0394 90.8018 62.1554 90.8018 60.9394ZM96.4178 60.9154C96.4178 59.4354 96.1818 58.3634 95.7098 57.6994C95.2378 57.0354 94.3778 56.7034 93.1298 56.7034C91.8898 56.7034 91.0338 57.0434 90.5618 57.7234C90.0898 58.4034 89.8538 59.4714 89.8538 60.9274C89.8538 62.3914 90.0938 63.4754 90.5738 64.1794C91.0538 64.8914 91.9058 65.2474 93.1298 65.2474C94.3538 65.2474 95.2058 64.8954 95.6858 64.1914C96.1738 63.4874 96.4178 62.3954 96.4178 60.9154ZM96.9233 64.2994V65.1274H102.923V64.2994H100.391V56.8234H99.4793V64.2994H96.9233ZM102.719 56.8234L104.999 65.1274H107.015L109.295 56.8234H108.383L107.783 58.9594H104.231L103.631 56.8234H102.719ZM105.695 64.3354L104.435 59.7874H107.579L106.319 64.3354H105.695ZM113.657 60.2434V61.0714H115.949V56.9914C114.941 56.7994 114.041 56.7034 113.249 56.7034C112.041 56.7034 111.201 57.0514 110.729 57.7474C110.265 58.4434 110.033 59.5154 110.033 60.9634C110.033 62.4194 110.265 63.4954 110.729 64.1914C111.201 64.8954 112.033 65.2474 113.225 65.2474C113.969 65.2474 114.741 65.1674 115.541 65.0074L115.949 64.9354L115.913 64.1674C114.921 64.3354 114.061 64.4194 113.333 64.4194C112.413 64.4194 111.793 64.1514 111.473 63.6154C111.153 63.0874 110.993 62.2034 110.993 60.9634C110.993 59.7314 111.153 58.8474 111.473 58.3114C111.793 57.7834 112.409 57.5194 113.321 57.5194C113.881 57.5194 114.453 57.5754 115.037 57.6874V60.2434H113.657ZM117.674 56.8234V65.1274H122.726V64.3114H118.598V61.4434H122.006V60.6394H118.598V57.6394H122.726V56.8234H117.674Z" fill="white"/>
<rect x="72.0729" y="42.6949" width="54.3692" height="24.5031" rx="4.5" stroke="white"/>
</svg>
