<svg width="72" height="67" viewBox="0 0 72 67" fill="none" xmlns="http://www.w3.org/2000/svg">
<rect x="2.30927" y="24.3203" width="68.6907" height="41.6797" rx="1" stroke="#FFFBFB" stroke-width="2"/>
<line x1="2" y1="31.5" x2="72" y2="31.5" stroke="white" stroke-width="3"/>
<line y1="-1" x2="11.2321" y2="-1" transform="matrix(0.707152 -0.707062 0.707152 0.707062 6.8692 32.8504)" stroke="white" stroke-width="2"/>
<line y1="-1" x2="11.2321" y2="-1" transform="matrix(0.707152 -0.707062 0.707152 0.707062 16.4006 32.8504)" stroke="white" stroke-width="2"/>
<line y1="-1" x2="11.2321" y2="-1" transform="matrix(0.707152 -0.707062 0.707152 0.707062 25.9319 32.8504)" stroke="white" stroke-width="2"/>
<line y1="-1" x2="11.2321" y2="-1" transform="matrix(0.707152 -0.707062 0.707152 0.707062 35.4632 32.8504)" stroke="white" stroke-width="2"/>
<line y1="-1" x2="11.2321" y2="-1" transform="matrix(0.707152 -0.707062 0.707152 0.707062 44.9946 32.8504)" stroke="white" stroke-width="2"/>
<line y1="-1" x2="11.2321" y2="-1" transform="matrix(0.707152 -0.707062 0.707152 0.707062 54.5259 32.8504)" stroke="white" stroke-width="2"/>
<line y1="-1" x2="11.2321" y2="-1" transform="matrix(0.707152 -0.707062 0.707152 0.707062 64.0573 32.8504)" stroke="white" stroke-width="2"/>
<line y1="-1" x2="7.86245" y2="-1" transform="matrix(0.500032 -0.86597 0.866081 0.499968 14.8928 21.7035)" stroke="white" stroke-width="2"/>
<line y1="-1" x2="7.86245" y2="-1" transform="matrix(0.500032 -0.86597 0.866081 0.499968 6.45343 23.9645)" stroke="white" stroke-width="2"/>
<line y1="-1" x2="7.86245" y2="-1" transform="matrix(0.500032 -0.86597 0.866081 0.499968 24.0994 19.2369)" stroke="white" stroke-width="2"/>
<line y1="-1" x2="7.86245" y2="-1" transform="matrix(0.500032 -0.86597 0.866081 0.499968 32.5387 16.9759)" stroke="white" stroke-width="2"/>
<line y1="-1" x2="8.14712" y2="-1" transform="matrix(0.496317 -0.868105 0.868215 0.496253 41.7453 14.5093)" stroke="white" stroke-width="2"/>
<line y1="-1" x2="7.3411" y2="-1" transform="matrix(0.500032 -0.86597 0.866081 0.499968 51.2871 11.6243)" stroke="white" stroke-width="2"/>
<line y1="-1" x2="7.86245" y2="-1" transform="matrix(0.500032 -0.86597 0.866081 0.499968 60.9256 9.37061)" stroke="white" stroke-width="2"/>
<rect x="1.22478" y="0.707129" width="68.6901" height="5.14765" rx="1" transform="matrix(0.965934 -0.258788 0.25885 0.965917 -0.141317 18.6348)" stroke="#FCFCFC" stroke-width="2"/>
<path d="M14.1136 43.4646V46.6446H13.1896V38.3406H16.2616C17.1416 38.3406 17.8016 38.5446 18.2416 38.9526C18.6896 39.3606 18.9136 39.9966 18.9136 40.8606C18.9136 42.1406 18.4056 42.9446 17.3896 43.2726L18.9856 46.6446H17.9656L16.4656 43.4646H14.1136ZM16.2736 42.6486C17.4016 42.6486 17.9656 42.0686 17.9656 40.9086C17.9656 39.7406 17.3976 39.1566 16.2616 39.1566H14.1136V42.6486H16.2736ZM20.5841 46.6446V38.3406H25.6361V39.1566H21.5081V42.0246H24.9161V42.8286H21.5081V45.8286H25.6361V46.6446H20.5841ZM31.9329 38.3406H32.8929L30.7209 46.6446H28.6569L26.4849 38.3406H27.4449L29.3529 45.8286H30.0249L31.9329 38.3406ZM34.2013 46.6446V38.3406H39.2533V39.1566H35.1253V42.0246H38.5333V42.8286H35.1253V45.8286H39.2533V46.6446H34.2013ZM41.7581 43.4646V46.6446H40.8341V38.3406H43.9061C44.7861 38.3406 45.4461 38.5446 45.8861 38.9526C46.3341 39.3606 46.5581 39.9966 46.5581 40.8606C46.5581 42.1406 46.0501 42.9446 45.0341 43.2726L46.6301 46.6446H45.6101L44.1101 43.4646H41.7581ZM43.9181 42.6486C45.0461 42.6486 45.6101 42.0686 45.6101 40.9086C45.6101 39.7406 45.0421 39.1566 43.9061 39.1566H41.7581V42.6486H43.9181ZM50.5207 39.0246C49.3207 39.0246 48.7207 39.4766 48.7207 40.3806C48.7207 40.8846 48.8567 41.2326 49.1287 41.4246C49.4087 41.6086 49.9687 41.7966 50.8087 41.9886C51.6567 42.1726 52.2567 42.4166 52.6087 42.7206C52.9607 43.0166 53.1367 43.5086 53.1367 44.1966C53.1367 45.9006 52.2527 46.7526 50.4847 46.7526C49.9007 46.7526 49.1687 46.6846 48.2887 46.5486L47.8567 46.4886L47.9527 45.7206C49.0407 45.8646 49.8687 45.9366 50.4367 45.9366C51.6207 45.9366 52.2127 45.3806 52.2127 44.2686C52.2127 43.8206 52.0807 43.5006 51.8167 43.3086C51.5607 43.1086 51.0767 42.9406 50.3647 42.8046C49.4287 42.6046 48.7647 42.3486 48.3727 42.0366C47.9807 41.7166 47.7847 41.1846 47.7847 40.4406C47.7847 38.9526 48.6767 38.2086 50.4607 38.2086C51.0447 38.2086 51.7447 38.2686 52.5607 38.3886L52.9687 38.4486L52.8847 39.2286C51.7727 39.0926 50.9847 39.0246 50.5207 39.0246ZM54.7326 46.6446V38.3406H59.7846V39.1566H55.6566V42.0246H59.0646V42.8286H55.6566V45.8286H59.7846V46.6446H54.7326Z" fill="white"/>
<path d="M13.2487 50.8233V59.1273H18.2167V58.3113H14.1727V55.0713H17.5927V54.2553H14.1727V50.8233H13.2487ZM19.9699 54.9393C19.9699 53.7233 20.1299 52.8473 20.4499 52.3113C20.7699 51.7833 21.3859 51.5193 22.2979 51.5193C23.2179 51.5193 23.8339 51.7793 24.1459 52.2993C24.4659 52.8193 24.6259 53.6913 24.6259 54.9153C24.6259 56.1393 24.4619 57.0313 24.1339 57.5913C23.8059 58.1513 23.1899 58.4313 22.2859 58.4313C21.3899 58.4313 20.7779 58.1513 20.4499 57.5913C20.1299 57.0393 19.9699 56.1553 19.9699 54.9393ZM25.5859 54.9153C25.5859 53.4353 25.3499 52.3633 24.8779 51.6993C24.4059 51.0353 23.5459 50.7033 22.2979 50.7033C21.0579 50.7033 20.2019 51.0433 19.7299 51.7233C19.2579 52.4033 19.0219 53.4713 19.0219 54.9273C19.0219 56.3913 19.2619 57.4753 19.7419 58.1793C20.2219 58.8913 21.0739 59.2473 22.2979 59.2473C23.5219 59.2473 24.3739 58.8953 24.8539 58.1913C25.3419 57.4873 25.5859 56.3953 25.5859 54.9153ZM27.8017 54.9393C27.8017 53.7233 27.9617 52.8473 28.2817 52.3113C28.6017 51.7833 29.2177 51.5193 30.1297 51.5193C31.0497 51.5193 31.6657 51.7793 31.9777 52.2993C32.2977 52.8193 32.4577 53.6913 32.4577 54.9153C32.4577 56.1393 32.2937 57.0313 31.9657 57.5913C31.6377 58.1513 31.0217 58.4313 30.1177 58.4313C29.2217 58.4313 28.6097 58.1513 28.2817 57.5913C27.9617 57.0393 27.8017 56.1553 27.8017 54.9393ZM33.4177 54.9153C33.4177 53.4353 33.1817 52.3633 32.7097 51.6993C32.2377 51.0353 31.3777 50.7033 30.1297 50.7033C28.8897 50.7033 28.0337 51.0433 27.5617 51.7233C27.0897 52.4033 26.8537 53.4713 26.8537 54.9273C26.8537 56.3913 27.0937 57.4753 27.5737 58.1793C28.0537 58.8913 28.9057 59.2473 30.1297 59.2473C31.3537 59.2473 32.2057 58.8953 32.6857 58.1913C33.1737 57.4873 33.4177 56.3953 33.4177 54.9153ZM33.9232 58.2993V59.1273H39.9232V58.2993H37.3912V50.8233H36.4792V58.2993H33.9232ZM39.7192 50.8233L41.9992 59.1273H44.0152L46.2952 50.8233H45.3832L44.7832 52.9593H41.2312L40.6312 50.8233H39.7192ZM42.6952 58.3353L41.4352 53.7873H44.5792L43.3192 58.3353H42.6952ZM50.657 54.2433V55.0713H52.949V50.9913C51.941 50.7993 51.041 50.7033 50.249 50.7033C49.041 50.7033 48.201 51.0513 47.729 51.7473C47.265 52.4433 47.033 53.5153 47.033 54.9633C47.033 56.4193 47.265 57.4953 47.729 58.1913C48.201 58.8953 49.033 59.2473 50.225 59.2473C50.969 59.2473 51.741 59.1673 52.541 59.0073L52.949 58.9353L52.913 58.1673C51.921 58.3353 51.061 58.4193 50.333 58.4193C49.413 58.4193 48.793 58.1513 48.473 57.6153C48.153 57.0873 47.993 56.2033 47.993 54.9633C47.993 53.7313 48.153 52.8473 48.473 52.3113C48.793 51.7833 49.409 51.5193 50.321 51.5193C50.881 51.5193 51.453 51.5753 52.037 51.6873V54.2433H50.657ZM54.6735 50.8233V59.1273H59.7255V58.3113H55.5975V55.4433H59.0055V54.6393H55.5975V51.6393H59.7255V50.8233H54.6735Z" fill="white"/>
<rect x="9.07288" y="36.6949" width="54.3692" height="24.5031" rx="4.5" stroke="white"/>
</svg>
