<svg width="100" height="100" viewBox="0 0 100 100" fill="none" xmlns="http://www.w3.org/2000/svg">
<circle cx="50" cy="50" r="50" fill="#161616"/>
<rect x="16.3093" y="39.3203" width="68.6907" height="41.6797" rx="1" stroke="#FFFBFB" stroke-width="2"/>
<line x1="16" y1="46.5" x2="86" y2="46.5" stroke="white" stroke-width="3"/>
<line y1="-1" x2="11.2321" y2="-1" transform="matrix(0.707152 -0.707062 0.707152 0.707062 20.8693 47.8504)" stroke="white" stroke-width="2"/>
<line y1="-1" x2="11.2321" y2="-1" transform="matrix(0.707152 -0.707062 0.707152 0.707062 30.4005 47.8504)" stroke="white" stroke-width="2"/>
<line y1="-1" x2="11.2321" y2="-1" transform="matrix(0.707152 -0.707062 0.707152 0.707062 39.9319 47.8504)" stroke="white" stroke-width="2"/>
<line y1="-1" x2="11.2321" y2="-1" transform="matrix(0.707152 -0.707062 0.707152 0.707062 49.4633 47.8504)" stroke="white" stroke-width="2"/>
<line y1="-1" x2="11.2321" y2="-1" transform="matrix(0.707152 -0.707062 0.707152 0.707062 58.9945 47.8504)" stroke="white" stroke-width="2"/>
<line y1="-1" x2="11.2321" y2="-1" transform="matrix(0.707152 -0.707062 0.707152 0.707062 68.5259 47.8504)" stroke="white" stroke-width="2"/>
<line y1="-1" x2="11.2321" y2="-1" transform="matrix(0.707152 -0.707062 0.707152 0.707062 78.0573 47.8504)" stroke="white" stroke-width="2"/>
<line y1="-1" x2="7.86245" y2="-1" transform="matrix(0.500032 -0.86597 0.866081 0.499968 28.8928 36.7035)" stroke="white" stroke-width="2"/>
<line y1="-1" x2="7.86245" y2="-1" transform="matrix(0.500032 -0.86597 0.866081 0.499968 20.4535 38.9645)" stroke="white" stroke-width="2"/>
<line y1="-1" x2="7.86245" y2="-1" transform="matrix(0.500032 -0.86597 0.866081 0.499968 38.0994 34.2369)" stroke="white" stroke-width="2"/>
<line y1="-1" x2="7.86245" y2="-1" transform="matrix(0.500032 -0.86597 0.866081 0.499968 46.5387 31.9759)" stroke="white" stroke-width="2"/>
<line y1="-1" x2="8.14712" y2="-1" transform="matrix(0.496317 -0.868105 0.868215 0.496253 55.7452 29.5093)" stroke="white" stroke-width="2"/>
<line y1="-1" x2="7.3411" y2="-1" transform="matrix(0.500032 -0.86597 0.866081 0.499968 65.2871 26.6243)" stroke="white" stroke-width="2"/>
<line y1="-1" x2="7.86245" y2="-1" transform="matrix(0.500032 -0.86597 0.866081 0.499968 74.9257 24.3706)" stroke="white" stroke-width="2"/>
<rect x="1.22478" y="0.707129" width="68.6901" height="5.14765" rx="1" transform="matrix(0.965934 -0.258788 0.25885 0.965917 13.8587 33.6348)" stroke="#FCFCFC" stroke-width="2"/>
<path d="M28.1136 58.4646V61.6446H27.1896V53.3406H30.2616C31.1416 53.3406 31.8016 53.5446 32.2416 53.9526C32.6896 54.3606 32.9136 54.9966 32.9136 55.8606C32.9136 57.1406 32.4056 57.9446 31.3896 58.2726L32.9856 61.6446H31.9656L30.4656 58.4646H28.1136ZM30.2736 57.6486C31.4016 57.6486 31.9656 57.0686 31.9656 55.9086C31.9656 54.7406 31.3976 54.1566 30.2616 54.1566H28.1136V57.6486H30.2736ZM34.5841 61.6446V53.3406H39.6361V54.1566H35.5081V57.0246H38.9161V57.8286H35.5081V60.8286H39.6361V61.6446H34.5841ZM45.9329 53.3406H46.8929L44.7209 61.6446H42.6569L40.4849 53.3406H41.4449L43.3529 60.8286H44.0249L45.9329 53.3406ZM48.2013 61.6446V53.3406H53.2533V54.1566H49.1253V57.0246H52.5333V57.8286H49.1253V60.8286H53.2533V61.6446H48.2013ZM55.7581 58.4646V61.6446H54.8341V53.3406H57.9061C58.7861 53.3406 59.4461 53.5446 59.8861 53.9526C60.3341 54.3606 60.5581 54.9966 60.5581 55.8606C60.5581 57.1406 60.0501 57.9446 59.0341 58.2726L60.6301 61.6446H59.6101L58.1101 58.4646H55.7581ZM57.9181 57.6486C59.0461 57.6486 59.6101 57.0686 59.6101 55.9086C59.6101 54.7406 59.0421 54.1566 57.9061 54.1566H55.7581V57.6486H57.9181ZM64.5207 54.0246C63.3207 54.0246 62.7207 54.4766 62.7207 55.3806C62.7207 55.8846 62.8567 56.2326 63.1287 56.4246C63.4087 56.6086 63.9687 56.7966 64.8087 56.9886C65.6567 57.1726 66.2567 57.4166 66.6087 57.7206C66.9607 58.0166 67.1367 58.5086 67.1367 59.1966C67.1367 60.9006 66.2527 61.7526 64.4847 61.7526C63.9007 61.7526 63.1687 61.6846 62.2887 61.5486L61.8567 61.4886L61.9527 60.7206C63.0407 60.8646 63.8687 60.9366 64.4367 60.9366C65.6207 60.9366 66.2127 60.3806 66.2127 59.2686C66.2127 58.8206 66.0807 58.5006 65.8167 58.3086C65.5607 58.1086 65.0767 57.9406 64.3647 57.8046C63.4287 57.6046 62.7647 57.3486 62.3727 57.0366C61.9807 56.7166 61.7847 56.1846 61.7847 55.4406C61.7847 53.9526 62.6767 53.2086 64.4607 53.2086C65.0447 53.2086 65.7447 53.2686 66.5607 53.3886L66.9687 53.4486L66.8847 54.2286C65.7727 54.0926 64.9847 54.0246 64.5207 54.0246ZM68.7326 61.6446V53.3406H73.7846V54.1566H69.6566V57.0246H73.0646V57.8286H69.6566V60.8286H73.7846V61.6446H68.7326Z" fill="white"/>
<path d="M27.2487 65.8233V74.1273H32.2167V73.3113H28.1727V70.0713H31.5927V69.2553H28.1727V65.8233H27.2487ZM33.9699 69.9393C33.9699 68.7233 34.1299 67.8473 34.4499 67.3113C34.7699 66.7833 35.3859 66.5193 36.2979 66.5193C37.2179 66.5193 37.8339 66.7793 38.1459 67.2993C38.4659 67.8193 38.6259 68.6913 38.6259 69.9153C38.6259 71.1393 38.4619 72.0313 38.1339 72.5913C37.8059 73.1513 37.1899 73.4313 36.2859 73.4313C35.3899 73.4313 34.7779 73.1513 34.4499 72.5913C34.1299 72.0393 33.9699 71.1553 33.9699 69.9393ZM39.5859 69.9153C39.5859 68.4353 39.3499 67.3633 38.8779 66.6993C38.4059 66.0353 37.5459 65.7033 36.2979 65.7033C35.0579 65.7033 34.2019 66.0433 33.7299 66.7233C33.2579 67.4033 33.0219 68.4713 33.0219 69.9273C33.0219 71.3913 33.2619 72.4753 33.7419 73.1793C34.2219 73.8913 35.0739 74.2473 36.2979 74.2473C37.5219 74.2473 38.3739 73.8953 38.8539 73.1913C39.3419 72.4873 39.5859 71.3953 39.5859 69.9153ZM41.8018 69.9393C41.8018 68.7233 41.9618 67.8473 42.2818 67.3113C42.6018 66.7833 43.2178 66.5193 44.1298 66.5193C45.0498 66.5193 45.6658 66.7793 45.9778 67.2993C46.2978 67.8193 46.4578 68.6913 46.4578 69.9153C46.4578 71.1393 46.2938 72.0313 45.9658 72.5913C45.6378 73.1513 45.0218 73.4313 44.1178 73.4313C43.2218 73.4313 42.6098 73.1513 42.2818 72.5913C41.9618 72.0393 41.8018 71.1553 41.8018 69.9393ZM47.4178 69.9153C47.4178 68.4353 47.1818 67.3633 46.7098 66.6993C46.2378 66.0353 45.3778 65.7033 44.1298 65.7033C42.8898 65.7033 42.0338 66.0433 41.5618 66.7233C41.0898 67.4033 40.8538 68.4713 40.8538 69.9273C40.8538 71.3913 41.0938 72.4753 41.5738 73.1793C42.0538 73.8913 42.9058 74.2473 44.1298 74.2473C45.3538 74.2473 46.2058 73.8953 46.6858 73.1913C47.1738 72.4873 47.4178 71.3953 47.4178 69.9153ZM47.9233 73.2993V74.1273H53.9233V73.2993H51.3913V65.8233H50.4793V73.2993H47.9233ZM53.7192 65.8233L55.9992 74.1273H58.0152L60.2952 65.8233H59.3832L58.7832 67.9593H55.2312L54.6312 65.8233H53.7192ZM56.6952 73.3353L55.4352 68.7873H58.5792L57.3192 73.3353H56.6952ZM64.657 69.2433V70.0713H66.949V65.9913C65.941 65.7993 65.041 65.7033 64.249 65.7033C63.041 65.7033 62.201 66.0513 61.729 66.7473C61.265 67.4433 61.033 68.5153 61.033 69.9633C61.033 71.4193 61.265 72.4953 61.729 73.1913C62.201 73.8953 63.033 74.2473 64.225 74.2473C64.969 74.2473 65.741 74.1673 66.541 74.0073L66.949 73.9353L66.913 73.1673C65.921 73.3353 65.061 73.4193 64.333 73.4193C63.413 73.4193 62.793 73.1513 62.473 72.6153C62.153 72.0873 61.993 71.2033 61.993 69.9633C61.993 68.7313 62.153 67.8473 62.473 67.3113C62.793 66.7833 63.409 66.5193 64.321 66.5193C64.881 66.5193 65.453 66.5753 66.037 66.6873V69.2433H64.657ZM68.6736 65.8233V74.1273H73.7256V73.3113H69.5976V70.4433H73.0056V69.6393H69.5976V66.6393H73.7256V65.8233H68.6736Z" fill="white"/>
<rect x="23.0729" y="51.6949" width="54.3692" height="24.5031" rx="4.5" stroke="white"/>
</svg>
