<svg width="85" height="85" viewBox="0 0 85 85" fill="none" xmlns="http://www.w3.org/2000/svg">
<path d="M60.2083 70.8333H77.9166V63.75C77.9166 57.882 73.1597 53.125 67.2916 53.125C63.9072 53.125 60.8924 54.7074 58.9466 57.1727M60.2083 70.8333H24.7916M60.2083 70.8333V63.75C60.2083 61.4258 59.7606 59.2062 58.9466 57.1727M24.7916 70.8333H7.08331V63.75C7.08331 57.882 11.8403 53.125 17.7083 53.125C21.0928 53.125 24.1076 54.7074 26.0534 57.1727M24.7916 70.8333V63.75C24.7916 61.4258 25.2394 59.2062 26.0534 57.1727M26.0534 57.1727C28.6645 50.6495 35.0441 46.0417 42.5 46.0417C49.9558 46.0417 56.3355 50.6495 58.9466 57.1727M53.125 24.7917C53.125 30.6597 48.368 35.4167 42.5 35.4167C36.632 35.4167 31.875 30.6597 31.875 24.7917C31.875 18.9236 36.632 14.1667 42.5 14.1667C48.368 14.1667 53.125 18.9236 53.125 24.7917ZM74.375 35.4167C74.375 39.3287 71.2037 42.5 67.2916 42.5C63.3796 42.5 60.2083 39.3287 60.2083 35.4167C60.2083 31.5047 63.3796 28.3333 67.2916 28.3333C71.2037 28.3333 74.375 31.5047 74.375 35.4167ZM24.7916 35.4167C24.7916 39.3287 21.6203 42.5 17.7083 42.5C13.7963 42.5 10.625 39.3287 10.625 35.4167C10.625 31.5047 13.7963 28.3333 17.7083 28.3333C21.6203 28.3333 24.7916 31.5047 24.7916 35.4167Z" stroke="white" stroke-width="2" stroke-linecap="round" stroke-linejoin="round"/>
</svg>
