<svg width="85" height="85" viewBox="0 0 85 85" fill="none" xmlns="http://www.w3.org/2000/svg">
<path d="M42.5 41.5C41.9477 41.5 41.5 41.9477 41.5 42.5C41.5 43.0523 41.9477 43.5 42.5 43.5V41.5ZM53.125 43.5C53.6773 43.5 54.125 43.0523 54.125 42.5C54.125 41.9477 53.6773 41.5 53.125 41.5V43.5ZM42.5 55.6667C41.9477 55.6667 41.5 56.1144 41.5 56.6667C41.5 57.2189 41.9477 57.6667 42.5 57.6667V55.6667ZM53.125 57.6667C53.6773 57.6667 54.125 57.2189 54.125 56.6667C54.125 56.1144 53.6773 55.6667 53.125 55.6667V57.6667ZM31.875 41.5C31.3227 41.5 30.875 41.9477 30.875 42.5C30.875 43.0523 31.3227 43.5 31.875 43.5V41.5ZM31.9104 43.5C32.4627 43.5 32.9104 43.0523 32.9104 42.5C32.9104 41.9477 32.4627 41.5 31.9104 41.5V43.5ZM31.875 55.6667C31.3227 55.6667 30.875 56.1144 30.875 56.6667C30.875 57.2189 31.3227 57.6667 31.875 57.6667V55.6667ZM31.9104 57.6667C32.4627 57.6667 32.9104 57.2189 32.9104 56.6667C32.9104 56.1144 32.4627 55.6667 31.9104 55.6667V57.6667ZM66.2916 24.7917V67.2917H68.2916V24.7917H66.2916ZM60.2083 73.375H24.7916V75.375H60.2083V73.375ZM18.7083 67.2917V24.7917H16.7083V67.2917H18.7083ZM24.7916 18.7083H31.875V16.7083H24.7916V18.7083ZM53.125 18.7083H60.2083V16.7083H53.125V18.7083ZM24.7916 73.375C21.4319 73.375 18.7083 70.6514 18.7083 67.2917H16.7083C16.7083 71.756 20.3273 75.375 24.7916 75.375V73.375ZM66.2916 67.2917C66.2916 70.6514 63.568 73.375 60.2083 73.375V75.375C64.6726 75.375 68.2916 71.756 68.2916 67.2917H66.2916ZM68.2916 24.7917C68.2916 20.3274 64.6726 16.7083 60.2083 16.7083V18.7083C63.568 18.7083 66.2916 21.4319 66.2916 24.7917H68.2916ZM18.7083 24.7917C18.7083 21.4319 21.4319 18.7083 24.7916 18.7083V16.7083C20.3273 16.7083 16.7083 20.3274 16.7083 24.7917H18.7083ZM42.5 43.5H53.125V41.5H42.5V43.5ZM42.5 57.6667H53.125V55.6667H42.5V57.6667ZM38.9583 11.625H46.0416V9.625H38.9583V11.625ZM46.0416 23.7917H38.9583V25.7917H46.0416V23.7917ZM38.9583 23.7917C35.5986 23.7917 32.875 21.0681 32.875 17.7083H30.875C30.875 22.1726 34.494 25.7917 38.9583 25.7917V23.7917ZM52.125 17.7083C52.125 21.0681 49.4014 23.7917 46.0416 23.7917V25.7917C50.506 25.7917 54.125 22.1726 54.125 17.7083H52.125ZM46.0416 11.625C49.4014 11.625 52.125 14.3486 52.125 17.7083H54.125C54.125 13.244 50.506 9.625 46.0416 9.625V11.625ZM38.9583 9.625C34.494 9.625 30.875 13.244 30.875 17.7083H32.875C32.875 14.3486 35.5986 11.625 38.9583 11.625V9.625ZM31.875 43.5H31.9104V41.5H31.875V43.5ZM31.875 57.6667H31.9104V55.6667H31.875V57.6667Z" fill="white"></path>
</svg>
