<svg width="40" height="40" viewBox="0 0 40 40" fill="none" xmlns="http://www.w3.org/2000/svg">
<path d="M15 15L32.5 10M32.5 20.9217V3.75L15 8.75V25.9217M32.5 20.9217V27.1717C32.4999 27.9865 32.2343 28.7791 31.7435 29.4295C31.2528 30.08 30.5635 30.5529 29.78 30.7767L27.58 31.405C27.1986 31.5203 26.798 31.5585 26.4016 31.5175C26.0052 31.4765 25.621 31.3571 25.2712 31.1662C24.9214 30.9753 24.6131 30.7167 24.3642 30.4055C24.1152 30.0943 23.9307 29.7367 23.8213 29.3536C23.7119 28.9704 23.6798 28.5693 23.7268 28.1736C23.7739 27.7779 23.8992 27.3955 24.0954 27.0486C24.2917 26.7018 24.5549 26.3975 24.8699 26.1534C25.1848 25.9092 25.5452 25.7302 25.93 25.6267L29.78 24.5267C30.5635 24.3029 31.2528 23.83 31.7435 23.1795C32.2343 22.5291 32.4999 21.7365 32.5 20.9217V20.9217ZM15 25.9217V32.1717C14.9999 32.9865 14.7343 33.7791 14.2435 34.4295C13.7528 35.08 13.0635 35.5529 12.28 35.7767L10.08 36.405C9.31811 36.61 8.50614 36.5071 7.81944 36.1186C7.13273 35.73 6.62639 35.087 6.40975 34.3283C6.19311 33.5696 6.28355 32.7562 6.66154 32.0636C7.03953 31.371 7.67475 30.8549 8.43002 30.6267L12.28 29.5267C13.0635 29.3029 13.7528 28.83 14.2435 28.1795C14.7343 27.5291 14.9999 26.7365 15 25.9217V25.9217Z" stroke="white" stroke-width="1.5" stroke-linecap="round" stroke-linejoin="round"></path>
</svg>
